<svg id="visual" viewBox="0 0 900 900" width="900" height="900" xmlns="http://www.w3.org/2000/svg" xmlns:xlink="http://www.w3.org/1999/xlink" version="1.1"><g stroke-width="1" stroke-linejoin="bevel"><path d="M348 633L527 900L588 658Z" fill="#9a2c35" stroke="#9a2c35"></path><path d="M348 633L301 900L527 900Z" fill="#832f34" stroke="#832f34"></path><path d="M900 900L900 650L588 658Z" fill="#783034" stroke="#783034"></path><path d="M588 658L535 249L348 633Z" fill="#553031" stroke="#553031"></path><path d="M527 900L900 900L588 658Z" fill="#302d2d" stroke="#302d2d"></path><path d="M0 244L0 611L348 633Z" fill="#492f30" stroke="#492f30"></path><path d="M348 633L0 611L301 900Z" fill="#9a2c35" stroke="#9a2c35"></path><path d="M0 611L0 900L301 900Z" fill="#a62935" stroke="#a62935"></path><path d="M900 266L535 249L588 658Z" fill="#3d2e2e" stroke="#3d2e2e"></path><path d="M535 249L376 242L348 633Z" fill="#302d2d" stroke="#302d2d"></path><path d="M900 650L900 266L588 658Z" fill="#783034" stroke="#783034"></path><path d="M376 242L0 244L348 633Z" fill="#832f34" stroke="#832f34"></path><path d="M535 249L312 0L376 242Z" fill="#8f2d35" stroke="#8f2d35"></path><path d="M376 242L312 0L0 244Z" fill="#783034" stroke="#783034"></path><path d="M614 0L312 0L535 249Z" fill="#3d2e2e" stroke="#3d2e2e"></path><path d="M900 266L614 0L535 249Z" fill="#a62935" stroke="#a62935"></path><path d="M900 266L900 0L614 0Z" fill="#8f2d35" stroke="#8f2d35"></path><path d="M312 0L0 0L0 244Z" fill="#3d2e2e" stroke="#3d2e2e"></path></g></svg>